# xmcd CD database file
#
# Track frame offsets:
#	150
#	16915
#	32350
#	50157
#	67707
#	90670
#	114880
#	134457
#	154220
#	172042
#
# Disc length: 2549 seconds
#
# Revision: 0
# Processed by: cddbd v1.5.1PL0 Copyright (c) Steve Scherf et al.
# Submitted via: CDex 1.51
#
DISCID=7709f30a
DTITLE=Rat Bat Blue - Squeak
DYEAR=1990
DGENRE=Blues
TTITLE0=Jack Is Back
TTITLE1=Tuned On You
TTITLE2=Saints And Sinners
TTITLE3=Back In The Back Seat
TTITLE4=Long Gone
TTITLE5=White Line
TTITLE6=Talk To Me
TTITLE7=I Need Love
TTITLE8=Gypsy Heart
TTITLE9=Angelina
EXTD=YEAR: 1990
EXTT0=
EXTT1=
EXTT2=
EXTT3=
EXTT4=
EXTT5=
EXTT6=
EXTT7=
EXTT8=
EXTT9=
PLAYORDER=
